<svg xmlns="http://www.w3.org/2000/svg" viewBox="0 0 24 24"><path fill="#FFFFFF" d="M12 5.362l2.475-3.026s4.245.09 8.471 2.054c-1.082 1.636-3.231 2.438-3.231 2.438-.146-1.439-1.154-1.79-4.354-1.79L12 24 8.619 5.038c-3.2 0-4.208.351-4.354 1.79 0 0-2.149-.802-3.231-2.438 4.226-1.964 8.471-2.054 8.471-2.054L12 5.362m0-3.899C8.275 1.483 4.17 1.865-.21 4.135c0 0 .166.284.882 1.584C4.674 3.443 8.585 2.891 12 2.908c3.415-.017 7.326.535 11.328 2.811.716-1.3.882-1.584.882-1.584C19.83 1.865 15.725 1.483 12 1.463Z"/></svg>
